<?xml version="1.0" encoding="UTF-8"?>
<svg xmlns="http://www.w3.org/2000/svg" viewBox="0 0 100 100">
<defs>
<clipPath id="o-c"><path d="M50,2 C12,2 2,12 2,50 C2,88 12,98 50,98 C88,98 98,88 98,50 C98,12 88,2 50,2 Z"/></clipPath>
<linearGradient id="o-bg" x1="0" y1="0" x2="1" y2="1"><stop offset="0" stop-color="#FF3A55"/><stop offset="1" stop-color="#C70027"/></linearGradient>
<radialGradient id="o-pl" cx=".4" cy=".25" r=".85"><stop offset="0" stop-color="#2a2a48"/><stop offset=".55" stop-color="#0d0d1a"/><stop offset="1" stop-color="#030307"/></radialGradient>
<linearGradient id="o-d" x1="0" y1="0" x2="1" y2="1"><stop offset="0" stop-color="#fff"/><stop offset="1" stop-color="#FFC4CE"/></linearGradient>
<linearGradient id="o-rg" x1="0" y1="0" x2="1" y2="0"><stop offset="0" stop-color="#fff" stop-opacity="0"/><stop offset=".55" stop-color="#fff" stop-opacity=".6"/><stop offset="1" stop-color="#fff" stop-opacity=".1"/></linearGradient>
<radialGradient id="o-gl" cx=".3" cy=".1" r=".75"><stop offset="0" stop-color="#fff" stop-opacity=".3"/><stop offset="1" stop-color="#fff" stop-opacity="0"/></radialGradient>
<filter id="o-s" x="-30%" y="-30%" width="160%" height="170%"><feDropShadow dx="0" dy="1.1" stdDeviation="1.3" flood-color="#55000e" flood-opacity=".5"/></filter>
<filter id="o-b" x="-20%" y="-20%" width="140%" height="140%"><feGaussianBlur stdDeviation="2.4"/></filter>
<path id="o-sp" d="M0-4 .9-.9 4 0 .9.9 0 4-.9.9-4 0-.9-.9Z"/>
</defs>
<g clip-path="url(#o-c)">
<rect width="100" height="100" fill="url(#o-bg)"/>
<circle cx="6" cy="94" r="47" fill="none" stroke="#FF9AA8" stroke-width="5" opacity=".7" filter="url(#o-b)"/>
<circle cx="6" cy="94" r="46" fill="url(#o-pl)"/>
<g fill="#fff">
<circle cx="10" cy="58" r=".8" opacity=".8"/><circle cx="22" cy="66" r=".6" opacity=".6"/><circle cx="8" cy="74" r="1" opacity=".9"/><circle cx="30" cy="77" r=".7" opacity=".7"/><circle cx="18" cy="85" r=".6" opacity=".6"/><circle cx="40" cy="86" r=".9" opacity=".85"/><circle cx="28" cy="93" r=".7" opacity=".7"/><circle cx="14" cy="96" r=".9" opacity=".8"/><circle cx="46" cy="94" r=".6" opacity=".6"/><circle cx="35" cy="70" r=".5" opacity=".5"/><circle cx="17" cy="51" r=".5" opacity=".5"/>
<use href="#o-sp" transform="translate(15 74) scale(2.3)"/><use href="#o-sp" transform="translate(37 83) scale(1.5)" opacity=".85"/><use href="#o-sp" transform="translate(25 59) scale(1.1)" opacity=".8"/>
</g>
<circle cx="6" cy="94" r="46" fill="none" stroke="#FFB8C2" stroke-opacity=".55" stroke-width=".8"/>
<ellipse cx="54" cy="46" rx="41" ry="13" transform="rotate(-30 54 46)" fill="none" stroke="url(#o-rg)" stroke-width=".9"/>
<circle cx="84.4" cy="23.4" r="4.5" fill="#fff" opacity=".35" filter="url(#o-b)"/><circle cx="84.4" cy="23.4" r="2" fill="#fff"/>
<g transform="translate(20 20) scale(2.5)" filter="url(#o-s)" stroke-linecap="round" stroke-linejoin="round">
<path d="M4 10a7.31 7.31 0 0 0 10 10Z" fill="url(#o-d)" stroke="url(#o-d)" stroke-width="1.6"/>
<path d="M5 10.9a6.3 6.3 0 0 0 8.1 8.1Z" fill="#FF8FA2" opacity=".5"/>
<path d="m9 15 3-3" fill="none" stroke="#fff" stroke-width="1.8"/>
<path d="M17 13a6 6 0 0 0-6-6" fill="none" stroke="#fff" stroke-width="1.8"/>
<path d="M21 13A10 10 0 0 0 11 3" fill="none" stroke="#fff" stroke-opacity=".7" stroke-width="1.8"/>
</g>
<rect width="100" height="100" fill="url(#o-gl)"/>
</g>
<path d="M50,2 C12,2 2,12 2,50 C2,88 12,98 50,98 C88,98 98,88 98,50 C98,12 88,2 50,2 Z" fill="none" stroke="#fff" stroke-opacity=".2" stroke-width=".8"/>
</svg>
